<svg xmlns="http://www.w3.org/2000/svg" width="250" height="209" viewBox="0 0 250 209">
<!-- SVG created with Arrow, by QuiverAI (https://quiver.ai) -->
  <path d="m249.9 0.21h-249.7v208.3h249.7v-208.3z" fill="#000"/>
  <path d="m4.41 94.71 2.56-0.45-2.25-0.1-0.31 0.55z" fill="#010202"/>
  <path d="m51.92 129.9 5.21-1.08-4.52 0.67-0.69 0.41z" fill="#010202"/>
  <path d="m95.94 106.2 0.54 0.73-0.39-0.46-0.15-0.27z" fill="#010202"/>
  <path d="m176.1 105.3 0.36 0.63-0.36-0.36v-0.27z" fill="#010202"/>
  <path d="m240.1 137.9 9.79 0.24-4.64-1.35-5.15 1.11z" fill="#010202"/>
  <path d="m162.8 160 1.97 1.66-0.36-1.49-1.61-0.17z" fill="#010202"/>
  <path d="m109.9 163.1 1.2 0.27-0.41-0.73-0.79 0.46z" fill="#010202"/>
  <path d="m105 188 7.64-8.35-1.9-1.21-7.32 9.91 1.58-0.35z" fill="#010202"/>
  <path d="m177.3 173.3 7.11 9.85 1.97-0.99-4.45-7.91-4.63-0.95z" fill="#010202"/>
  <path d="m136.9 4.21-9.04 24.69 9.04-2.62-1.09 16.6 9.89-25.58-8.5 2.49-0.3-15.58z" fill="#fff"/>
  <path d="m82.89 10.41 25.5 22.2-8.18 2.15 11.96 16.52-24.2-18.67 7.95-3.53-13.03-18.67z" fill="#fff"/>
  <path d="m190.7 10.41-25.65 22.2 8.18 2.15-11.62 16.52 24.2-18.67-7.32-3.53 12.21-18.67z" fill="#fff"/>
  <path d="m29.61 30.23c8.33 2.21 17.63 3.85 26.86 7.87 3.44 1.51 49.24 36.99 49.24 36.99l-0.1 10.62-57.6-40.57 0.28 1.19c1.8 3.08 6.56 6.55 8.53 8.03 11.09 8.2 48.72 37.59 48.72 37.59l0.07 9.36s-53.13-40.04-62.73-47.26c-5.82-5.94-10.86-16.22-13.27-23.82z" fill="#fff"/>
  <path d="m244.8 30.23c-8.33 2.21-17.63 3.85-26.86 7.87-3.44 1.51-50.07 37.57-50.07 37.57v11.45l58.47-41.98-0.28 1.19c-1.8 3.08-5.8 6.55-7.77 8.03-11.09 8.2-50.35 37.59-50.35 37.59l-0.07 10.47s53.07-40.04 62.67-47.26c6.57-6.31 11.85-17.33 14.26-24.93z" fill="#fff"/>
  <path d="m47.41 160.3c-4.98 1.58-5.93 7.27-4.6 11.75 1.9 5.82 7.32 7.54 11.32 6.49 2.69-0.74 4.06-1.85 4.59-3.44l-10.36-14.63-0.95-0.17z" fill="#fff"/>
  <path d="m54.41 160.7 5.6 9.08 19.45-15.11-5.6-8.34-19.45 14.37z" fill="#fff"/>
  <path d="m67.91 128.8 6.02-4.88c6.93 12.96 15.5 26.05 26.08 37.01l-5.52 4.88c-10.36-11.09-19.53-23.29-26.58-37.01z" fill="#fff"/>
  <path d="m85.08 134.4 22.93-17.59c0.88 3.09 2.15 4.81 5.18 6.5l-23.76 16.77-4.35-5.68z" fill="#fff"/>
  <path d="m91.03 143.2 23.69-18.37 1.9 8.2-20.46 15.99-5.13-5.82z" fill="#fff"/>
  <path d="m226.9 160.3c4.98 1.58 5.93 7.27 4.6 11.75-1.9 5.82-7.31 7.54-11.31 6.49-2.11-0.64-3.91-1.69-4.79-3.17l10.59-14.9 0.91-0.17z" fill="#fff"/>
  <path d="m219.9 160.7-7 8.51-19.01-14.54 5.59-8.34 20.42 14.37z" fill="#fff"/>
  <path d="m205.5 129.1-6.02-4.88c-6.93 12.96-15.5 26.05-26.08 37.01l5.95 4.88c10.36-11.09 19.1-23.29 26.15-37.01z" fill="#fff"/>
  <path d="m187.8 134.7-22.58-17.59c-0.89 3.09-2.15 4.81-5.19 6.5l24.59 16.77 3.18-5.68z" fill="#fff"/>
  <path d="m183.3 143.5-23.24-20.35-2.48 9.23 20.25 16.94 5.47-5.82z" fill="#fff"/>
  <path d="m138.2 48.61v10.21c0 2.52-4.53 2.59-4.53 0.27v-10.48c-4.7 0.21-7.39 0.72-10.36 1.38v9.52c0 2.65-4.45 2.58-4.45 0.61v-7.21c-5.89 2.21-8.37 8.16-8.37 15.51v0.41c7.55-1.29 15.27-1.77 23.12-1.7v4.41c-7.71-0.07-15.43 0.55-23.05 1.83v4.48c7.62-1.22 15.34-1.84 23.05-1.91v4.88c-7.71 0.07-15.43 0.69-23.05 1.91v4.88c7.62-1.22 15.34-1.84 23.05-1.9v4.88c-7.71 0.07-15.43 0.69-23.05 1.91v6.11c7.62-1.22 15.34-1.84 23.05-1.91v3.96c-8.43 0.07-15.82 0.55-22.75 2.41v4.88c0 6.64 3.8 11.18 8.4 14.06v-12.98c0-2.21 4.06-1.62 4.06-0.2v14.9c3.44 1.22 6.88 1.7 10.84 1.7v-17.28c0-2.28 4.52-1.73 4.52 0v16.6c3.44-0.2 6.88-0.82 10.18-2.04v-13.47c0-2.48 4.53-1.93 4.53-0.34v12.63c5.88-3.76 9.32-8.17 9.32-15.52v-3.35c-7.85-1.79-15.1-2.61-23.12-2.81v-3.89c7.92 0.2 15.4 0.95 23.12 2.57v-5.49c-7.85-1.76-15.1-2.58-23.12-2.78v-3.89c7.92 0.2 15.4 0.95 23.12 2.57v-5.49c-7.85-1.76-15.1-2.58-23.12-2.78v-3.89c7.92 0.2 15.4 0.95 23.12 2.57v-4.88c-7.85-1.76-15.1-2.58-23.12-2.78v-4.48c7.92 0.2 15.4 0.95 23.12 2.57v-3.35c0-7.35-3.9-11.83-9.72-14.31v7.35c0 2.95-4.53 2.34-4.53 0.27v-9.65c-3.3-1.15-6.3-1.48-10.26-1.48z" fill="#fff"/>
  <path d="m120.4 127.5 6.3 58.21c0.27 3.02 1.91 3.71 4.25 3.71h11.75c3.1 0 3.7-1.51 4-4.33l5.6-57.59c-9.9 3.34-21.65 3.68-31.9 0zm20.22 26.97c0 1.35-0.69 1.62-1.89 1.62h-4.03c-1.37 0-2-0.41-2.07-2.03l-1.2-11.87c-0.13-1.69 0.53-2.44 2.27-2.44h5.04c1.64 0 2.14 0.82 2.01 2.65l-0.13 12.07z" fill="#fff"/>
  <path d="m129.7 194.6 13.27-0.07v4.88c0 3.02-1.87 3.64-6.77 3.64s-6.5-1.02-6.5-5.14v-3.31z" fill="#fff"/>
</svg>